<?xml version="1.0" encoding="utf-8"?>
<!-- Generator: Adobe Illustrator 24.2.3, SVG Export Plug-In . SVG Version: 6.00 Build 0)  -->
<svg version="1.1" id="Layer_1" xmlns="http://www.w3.org/2000/svg" xmlns:xlink="http://www.w3.org/1999/xlink" x="0px" y="0px"
	 viewBox="0 0 595.3 841.9" style="enable-background:new 0 0 595.3 841.9;" xml:space="preserve">
<image style="overflow:visible;" width="512" height="512" xlink:href="../../../Html_icon.png"  transform="matrix(0.3903 0 0 0.3823 184.1064 19.7872)">
</image>
<image style="overflow:visible;" width="2800" height="1750" xlink:href="../../../Javascript.png"  transform="matrix(8.395137e-02 0 0 9.118541e-02 -10.4468 6)">
</image>
<image style="overflow:visible;" width="1200" height="1682" xlink:href="../../../CSS_Icon.png"  transform="matrix(8.680851e-02 0 0 9.593443e-02 408.4468 12.1277)">
</image>
<image style="overflow:visible;" width="971" height="512" xlink:href="../../../Php_icon.png"  transform="matrix(0.1882 0 0 0.1903 192.6331 453.438)">
</image>
<image style="overflow:visible;" width="1042" height="1042" xlink:href="../../../ps_icon.png"  transform="matrix(0.1149 0 0 0.1123 224.1821 275.9912)">
</image>
<image style="overflow:visible;" width="3840" height="2399" xlink:href="../../../Ai_icon.png"  transform="matrix(4.640118e-02 0 0 4.529964e-02 21.8246 344.7642)">
</image>
<image style="overflow:visible;" width="1200" height="1172" xlink:href="../../../an_icon.png"  transform="matrix(8.808535e-02 0 0 9.074169e-02 424.7869 345.9264)">
</image>
<image style="overflow:visible;" width="400" height="400" xlink:href="../../../python_icon.png"  transform="matrix(0.3028 0 0 0.2798 50.3617 588.8936)">
</image>
<image style="overflow:visible;" width="512" height="512" xlink:href="../../../xammp_icon.png"  transform="matrix(0.2927 0 0 0.2616 402.7018 577.8892)">
</image>
</svg>
