<?xml version="1.0" encoding="utf-8"?>
<!-- Generator: Adobe Illustrator 24.2.3, SVG Export Plug-In . SVG Version: 6.00 Build 0)  -->
<svg version="1.1" id="Layer_1" xmlns="http://www.w3.org/2000/svg" xmlns:xlink="http://www.w3.org/1999/xlink" x="0px" y="0px"
	 viewBox="0 0 800 250" style="enable-background:new 0 0 800 250;" xml:space="preserve">
<style type="text/css">
	.st0{fill:#FFFFFF;}
</style>
<rect width="800" height="250"/>
<g>
	<path class="st0" d="M265.6,101v6.9c-4.8-2.4-9.3-3.6-13.3-3.6c-5.2,0-9.6,1.7-13.1,5c-3.6,3.4-5.3,7.5-5.3,12.4
		c0,5,1.8,9.1,5.5,12.5c3.6,3.3,8.2,5,13.7,5c4,0,8.2-1.3,12.7-3.8v7c-4.1,2.2-8.4,3.2-13.2,3.2c-6.9,0-12.9-2.3-17.8-7
		s-7.4-10.4-7.4-17c0-6.5,2.4-12.1,7.3-16.7c4.8-4.6,10.7-7,17.5-7C256.4,98,260.9,99,265.6,101z"/>
	<path class="st0" d="M270.6,129.6c0-4,1.6-7.5,4.7-10.6c3.1-3.1,6.7-4.6,10.8-4.6c4.2,0,7.8,1.5,10.9,4.6c3.1,3,4.7,6.6,4.7,10.6
		c0,4.1-1.5,7.7-4.6,10.8s-6.6,4.7-10.6,4.7c-4.3,0-8-1.5-11.2-4.6C272.2,137.3,270.6,133.7,270.6,129.6z M295.8,129.6
		c0-2.5-0.9-4.6-2.8-6.4c-1.9-1.8-4.1-2.7-6.7-2.7c-2.6,0-4.9,0.9-6.8,2.8c-1.9,1.8-2.9,4-2.9,6.6c0,2.4,1,4.6,2.9,6.4
		c1.9,1.8,4.2,2.7,6.8,2.7c2.5,0,4.7-0.9,6.6-2.8S295.8,132.1,295.8,129.6z"/>
	<path class="st0" d="M307.1,144.2v-29h6v4.8c1.8-1.9,3.4-3.4,4.8-4.3c1.4-0.9,3-1.4,4.8-1.4c2.6,0,4.9,0.9,6.7,2.6
		c1.9,1.7,2.8,3.8,2.8,6.3v21h-6.1V125c0-1.6-0.5-2.9-1.5-3.9c-1-1-2.3-1.5-3.9-1.5c-2,0-3.8,0.9-5.3,2.6s-2.2,3.8-2.2,6.2v15.8
		H307.1z"/>
	<path class="st0" d="M341.8,106.8h6.1v8.4h6v5.6h-6v23.4h-6.1v-23.4h-4.8v-5.7h4.8V106.8z"/>
	<path class="st0" d="M383.7,115.2h6.1v29h-6.1v-5.8c-3,4.4-6.7,6.6-11.1,6.6c-3.8,0-7.1-1.5-9.8-4.5s-4.1-6.6-4.1-10.9
		c0-4.1,1.4-7.6,4.1-10.6c2.7-3,5.9-4.6,9.6-4.6c2.3,0,4.4,0.6,6.5,1.9c2,1.2,3.6,2.9,4.7,4.9V115.2z M384.6,129.8
		c0-2.6-1-4.9-2.9-6.8c-1.9-1.9-4.2-2.8-6.8-2.8c-2.6,0-4.8,0.9-6.8,2.8c-1.9,1.9-2.9,4.1-2.9,6.6c0,2.7,0.9,5.1,2.8,7
		c1.9,1.9,4.2,2.9,6.8,2.9c2.7,0,4.9-1,6.8-2.9C383.6,134.7,384.6,132.4,384.6,129.8z"/>
	<path class="st0" d="M420.8,135.3v7c-3.1,1.8-6.1,2.7-9.1,2.7c-4,0-7.5-1.5-10.5-4.5c-3-3-4.5-6.5-4.5-10.5c0-4.5,1.5-8.2,4.5-11.2
		c3-3,6.8-4.4,11.3-4.4c2.7,0,5.5,0.7,8.3,2.1v6.8c-3.1-2-6-3-8.7-3c-2.5,0-4.7,0.9-6.6,2.7c-1.9,1.8-2.8,3.9-2.8,6.3
		c0,2.7,0.9,5,2.7,6.8c1.8,1.8,4,2.8,6.5,2.8C414.4,138.8,417.4,137.7,420.8,135.3z"/>
	<path class="st0" d="M428.7,106.8h6.1v8.4h6v5.6h-6v23.4h-6.1v-23.4h-4.8v-5.7h4.8V106.8z"/>
	<path class="st0" d="M503.7,97.5l12.3,46.7h-6l-7.4-28.5l-12.8,30.2L477,115.4l-7.5,28.8h-6l12.3-46.7l14,33.4L503.7,97.5z"/>
	<path class="st0" d="M550.6,130.9h-24.8c0.5,3,1.8,5.2,3.7,6.5s4,2.1,6.2,2.1c3.5,0,6.4-1.4,8.7-4.3l4.5,3.4
		c-3.4,4.3-7.8,6.5-13.5,6.5c-4.3,0-7.9-1.5-10.8-4.4s-4.4-6.6-4.4-11c0-4.1,1.5-7.7,4.4-10.7c2.9-3,6.5-4.5,10.8-4.5
		c4.2,0,7.7,1.5,10.7,4.6S550.6,126,550.6,130.9z M526.5,126h17.7c-2-4-4.9-6-8.7-6C531.3,120,528.3,122,526.5,126z"/>
</g>
<g>
</g>
<g>
</g>
<g>
</g>
<g>
</g>
<g>
</g>
<g>
</g>
<g>
</g>
<g>
</g>
<g>
</g>
<g>
</g>
<g>
</g>
<g>
</g>
<g>
</g>
<g>
</g>
<g>
</g>
</svg>
