<?xml version="1.0" encoding="utf-8"?>
<!-- Generator: Adobe Illustrator 24.2.3, SVG Export Plug-In . SVG Version: 6.00 Build 0)  -->
<svg version="1.1" id="Layer_1" xmlns="http://www.w3.org/2000/svg" xmlns:xlink="http://www.w3.org/1999/xlink" x="0px" y="0px"
	 viewBox="0 0 286 180" style="enable-background:new 0 0 286 180;" xml:space="preserve">
<style type="text/css">
	.st0{fill:#FFFFFF;}
</style>
<rect width="286" height="180"/>
<g>
	<path class="st0" d="M44.5,55.6h3.1v13.8c0,2,0.5,3.6,1.5,4.7s2.4,1.7,4.2,1.7c1.8,0,3.2-0.5,4.2-1.5s1.5-2.5,1.5-4.3V55.6h3.1
		v14.1c0,2.7-0.8,4.9-2.3,6.6s-3.6,2.5-6.2,2.5c-2.7,0-4.8-0.8-6.4-2.5s-2.4-4.1-2.4-7.4V55.6z"/>
	<path class="st0" d="M65.5,78V63.5h3v2.4c0.9-1,1.7-1.7,2.4-2.1s1.5-0.7,2.4-0.7c1.3,0,2.4,0.4,3.4,1.3s1.4,1.9,1.4,3.1V78h-3.1
		v-9.6c0-0.8-0.3-1.4-0.8-2s-1.2-0.8-1.9-0.8c-1,0-1.9,0.4-2.6,1.3s-1.1,1.9-1.1,3.1V78H65.5z"/>
	<path class="st0" d="M94,55.2h3V78h-3v-3c-1.4,2.3-3.3,3.4-5.7,3.4c-1.9,0-3.5-0.8-4.9-2.3s-2-3.3-2-5.4c0-2.1,0.7-3.9,2.1-5.4
		s3-2.2,4.9-2.2c1.1,0,2.2,0.3,3.2,0.9c1,0.6,1.8,1.5,2.4,2.5V55.2z M94.3,70.7c0-1.3-0.5-2.4-1.4-3.4s-2.1-1.4-3.4-1.4
		c-1.4,0-2.5,0.5-3.5,1.4c-0.9,0.9-1.4,2.1-1.4,3.4c0,1.3,0.5,2.4,1.4,3.4c1,1,2.1,1.5,3.4,1.5c1.4,0,2.5-0.5,3.5-1.4
		S94.3,72.1,94.3,70.7z"/>
	<path class="st0" d="M116.1,71.3h-12.4c0.3,1.5,0.9,2.6,1.8,3.3s2,1,3.1,1c1.7,0,3.2-0.7,4.4-2.2l2.2,1.7c-1.7,2.2-3.9,3.3-6.7,3.3
		c-2.2,0-4-0.7-5.4-2.2s-2.2-3.3-2.2-5.5c0-2.1,0.7-3.8,2.2-5.3s3.3-2.3,5.4-2.3c2.1,0,3.9,0.8,5.4,2.3S116.2,68.9,116.1,71.3z
		 M104.1,68.9h8.9c-1-2-2.4-3-4.4-3C106.5,65.9,105,66.9,104.1,68.9z"/>
	<path class="st0" d="M123.1,63.5v3c0.7-1.2,1.3-2.1,2-2.6s1.5-0.8,2.5-0.8c0.3,0,0.7,0.1,1.3,0.2l-0.9,3.1c-0.6-0.1-1-0.2-1.2-0.2
		c-1,0-1.9,0.4-2.6,1.1s-1,1.6-1,2.7v8h-3.1V63.5H123.1z"/>
	<path class="st0" d="M150.2,54.7L160.8,78h-3.2l-2.6-5.7h-9.5l-2.6,5.7h-3.2L150.2,54.7z M150.2,61.7l-3.6,8h7.2L150.2,61.7z"/>
	<path class="st0" d="M166.7,63.5v3c0.7-1.2,1.3-2.1,2-2.6s1.5-0.8,2.5-0.8c0.3,0,0.7,0.1,1.3,0.2l-0.9,3.1c-0.6-0.1-1-0.2-1.2-0.2
		c-1,0-1.9,0.4-2.6,1.1s-1,1.6-1,2.7v8h-3.1V63.5H166.7z"/>
	<path class="st0" d="M175.7,78V63.5h3v2.2c0.7-0.9,1.4-1.6,2-2s1.4-0.6,2.2-0.6c1.1,0,2,0.2,2.6,0.7s1.2,1.2,1.6,2.3
		c0.8-1.1,1.5-1.8,2.2-2.3s1.5-0.7,2.5-0.7c1.2,0,2.1,0.4,3,1.3c0.8,0.9,1.3,1.9,1.3,3.1V78h-3.1v-9.8c0-1.6-0.8-2.4-2.4-2.4
		c-0.9,0-1.7,0.4-2.3,1.2s-0.9,1.8-0.9,3V78h-3.1v-9.4c0-1.9-0.8-2.8-2.3-2.8c-0.9,0-1.7,0.4-2.4,1.2s-1,1.7-1,2.9V78H175.7z"/>
	<path class="st0" d="M199.2,70.7c0-2,0.8-3.7,2.3-5.3s3.4-2.3,5.4-2.3c2.1,0,3.9,0.8,5.5,2.3s2.3,3.3,2.3,5.3c0,2-0.8,3.8-2.3,5.4
		s-3.3,2.3-5.3,2.3c-2.1,0-4-0.8-5.6-2.3S199.2,72.8,199.2,70.7z M211.8,70.7c0-1.2-0.5-2.3-1.4-3.2s-2.1-1.4-3.3-1.4
		c-1.3,0-2.5,0.5-3.4,1.4s-1.4,2-1.4,3.3c0,1.2,0.5,2.3,1.5,3.2c1,0.9,2.1,1.4,3.4,1.4c1.3,0,2.4-0.5,3.3-1.4S211.8,71.9,211.8,70.7
		z"/>
	<path class="st0" d="M217.5,63.5h3.1v8.2c0,2.5,1.1,3.8,3.3,3.8c1,0,1.8-0.3,2.3-1s0.9-1.6,0.9-2.8v-8.2h3v8.7
		c0,1.8-0.6,3.3-1.8,4.5s-2.7,1.8-4.5,1.8c-1.9,0-3.4-0.6-4.6-1.8s-1.7-2.7-1.7-4.6V63.5z"/>
	<path class="st0" d="M237.2,63.5v3c0.7-1.2,1.3-2.1,2-2.6s1.5-0.8,2.5-0.8c0.3,0,0.7,0.1,1.3,0.2l-0.9,3.1c-0.6-0.1-1-0.2-1.2-0.2
		c-1,0-1.9,0.4-2.6,1.1s-1,1.6-1,2.7v8h-3.1V63.5H237.2z"/>
	<path class="st0" d="M97.1,98.8h3.4l5,8.2l4.9-8.2h3.4l-6.7,11l6.8,11.4h-3.4l-5.2-8.6l-5.2,8.6h-3.4l6.9-11.4L97.1,98.8z"/>
	<path class="st0" d="M128.3,98.8h4.9c2.4,0,4.4,0.6,5.9,1.8c1.5,1.2,2.3,2.7,2.3,4.6c0,1.5-0.5,2.8-1.5,4c-1,1.1-2.5,2-4.6,2.4
		l6.5,9.6h-3.5L132,112h-0.7v9.2h-3.1V98.8z M131.3,101.5v7.8c4.5,0.1,6.8-1.2,6.8-3.9c0-0.9-0.3-1.7-0.8-2.3s-1.2-1-2.1-1.2
		S133,101.5,131.3,101.5z"/>
	<path class="st0" d="M143.6,113.9c0-2,0.8-3.7,2.3-5.3s3.4-2.3,5.4-2.3c2.1,0,3.9,0.8,5.5,2.3s2.3,3.3,2.3,5.3c0,2-0.8,3.8-2.3,5.4
		s-3.3,2.3-5.3,2.3c-2.1,0-4-0.8-5.6-2.3S143.6,116,143.6,113.9z M156.2,113.9c0-1.2-0.5-2.3-1.4-3.2s-2.1-1.4-3.3-1.4
		c-1.3,0-2.5,0.5-3.4,1.4s-1.4,2-1.4,3.3c0,1.2,0.5,2.3,1.5,3.2c1,0.9,2.1,1.4,3.4,1.4c1.3,0,2.4-0.5,3.3-1.4
		C155.7,116.2,156.2,115.1,156.2,113.9z"/>
	<path class="st0" d="M173.3,116.8v3.5c-1.6,0.9-3.1,1.3-4.5,1.3c-2,0-3.8-0.8-5.3-2.3s-2.3-3.2-2.3-5.2c0-2.3,0.8-4.1,2.3-5.6
		s3.4-2.2,5.6-2.2c1.3,0,2.7,0.4,4.2,1.1v3.4c-1.5-1-3-1.5-4.4-1.5c-1.3,0-2.4,0.4-3.3,1.3s-1.4,1.9-1.4,3.1c0,1.3,0.4,2.5,1.3,3.4
		s2,1.4,3.3,1.4C170.1,118.5,171.6,117.9,173.3,116.8z"/>
	<path class="st0" d="M176.8,98.4h3.1v14.7l6-6.4h4l-6.3,6.7l6.3,7.8h-3.8l-6.2-7.7v7.7h-3.1V98.4z"/>
</g>
<g>
</g>
<g>
</g>
<g>
</g>
<g>
</g>
<g>
</g>
<g>
</g>
<g>
</g>
<g>
</g>
<g>
</g>
<g>
</g>
<g>
</g>
<g>
</g>
<g>
</g>
<g>
</g>
<g>
</g>
</svg>
