<?xml version="1.0" encoding="utf-8"?>
<!-- Generator: Adobe Illustrator 24.2.3, SVG Export Plug-In . SVG Version: 6.00 Build 0)  -->
<svg version="1.1" id="Layer_1" xmlns="http://www.w3.org/2000/svg" xmlns:xlink="http://www.w3.org/1999/xlink" x="0px" y="0px"
	 viewBox="0 0 286 180" style="enable-background:new 0 0 286 180;" xml:space="preserve">
<style type="text/css">
	.st0{fill:#FFFFFF;}
</style>
<rect width="286" height="180"/>
<g>
	<path class="st0" d="M91.1,77.2h3.6c2.3,0,4.2,0.5,5.7,1.5s2.2,2.3,2.2,3.8c0,1.9-1.1,3.5-3.3,4.7c3.4,1.1,5.1,3.1,5.1,5.9
		c0,1.9-0.9,3.5-2.6,4.7s-4.1,1.8-7,1.8h-3.7V77.2z M94.1,79.9v6.6c1.7,0,3-0.3,3.9-1s1.3-1.5,1.3-2.6c0-0.9-0.4-1.7-1.2-2.3
		s-1.9-0.9-3.3-0.9C94.6,79.9,94.3,79.9,94.1,79.9z M94.1,89.2v7.7h0.2c2.6,0,4.4-0.4,5.4-1.3s1.4-1.7,1.4-2.6
		c0-1.2-0.5-2.1-1.6-2.8s-2.6-1-4.4-1H94.1z"/>
	<path class="st0" d="M109.1,77.2h3.6c2.3,0,4.2,0.5,5.7,1.5s2.2,2.3,2.2,3.8c0,1.9-1.1,3.5-3.3,4.7c3.4,1.1,5.1,3.1,5.1,5.9
		c0,1.9-0.9,3.5-2.6,4.7s-4.1,1.8-7,1.8h-3.7V77.2z M112.1,79.9v6.6c1.7,0,3-0.3,3.9-1s1.3-1.5,1.3-2.6c0-0.9-0.4-1.7-1.2-2.3
		s-1.9-0.9-3.3-0.9C112.6,79.9,112.3,79.9,112.1,79.9z M112.1,89.2v7.7h0.2c2.6,0,4.4-0.4,5.4-1.3s1.4-1.7,1.4-2.6
		c0-1.2-0.5-2.1-1.6-2.8s-2.6-1-4.4-1H112.1z"/>
	<path class="st0" d="M150.3,79.7l-2.5,2c-0.7-0.7-1.2-1.2-1.8-1.5s-1.3-0.5-2.3-0.5c-1.1,0-2,0.2-2.7,0.7c-0.7,0.5-1,1.1-1,1.9
		c0,0.7,0.3,1.3,0.9,1.8c0.6,0.5,1.6,1.1,3.1,1.7c1.4,0.6,2.6,1.2,3.4,1.7c0.8,0.5,1.5,1.1,2,1.8c0.5,0.6,0.9,1.3,1.1,2
		c0.3,0.7,0.4,1.5,0.4,2.3c0,1.9-0.7,3.4-2,4.8c-1.4,1.3-3,2-4.9,2c-1.9,0-3.5-0.5-5-1.5s-2.5-2.6-3.3-4.6l3.1-0.9
		c1.1,2.5,2.8,3.8,5.1,3.8c1.1,0,2-0.3,2.8-1s1.1-1.5,1.1-2.5c0-0.6-0.2-1.2-0.6-1.8c-0.4-0.6-0.9-1.1-1.4-1.5
		c-0.6-0.4-1.5-0.9-2.7-1.4c-1.3-0.5-2.2-1-2.9-1.4c-0.7-0.4-1.3-0.9-1.8-1.5c-0.5-0.6-0.9-1.2-1.1-1.8c-0.2-0.6-0.3-1.2-0.3-1.9
		c0-1.6,0.6-3,1.9-4.1s2.9-1.7,4.7-1.7c1.2,0,2.5,0.3,3.7,0.8S149.4,78.6,150.3,79.7z"/>
	<path class="st0" d="M153.8,85.1h3.1v8.2c0,2.5,1.1,3.8,3.3,3.8c1,0,1.8-0.3,2.3-1s0.9-1.6,0.9-2.8v-8.2h3v8.7
		c0,1.8-0.6,3.3-1.8,4.5s-2.7,1.8-4.5,1.8c-1.9,0-3.4-0.6-4.6-1.8s-1.7-2.7-1.7-4.6V85.1z"/>
	<path class="st0" d="M169.5,80.3c0-0.6,0.2-1.2,0.7-1.6s1-0.7,1.7-0.7c0.6,0,1.2,0.2,1.6,0.7s0.7,1,0.7,1.6c0,0.6-0.2,1.2-0.7,1.7
		s-1,0.7-1.6,0.7c-0.6,0-1.2-0.2-1.7-0.7S169.5,81,169.5,80.3z M170.4,85.1h3v14.5h-3V85.1z"/>
	<path class="st0" d="M178.9,80.9h3.1v4.2h3v2.8h-3v11.7h-3.1V87.9h-2.4v-2.8h2.4V80.9z"/>
	<path class="st0" d="M196.5,86.8l-2,1.8c-0.5-0.4-1-0.7-1.4-0.9s-0.8-0.3-1.4-0.3c-1.2,0-1.9,0.5-1.9,1.4c0,0.7,0.8,1.3,2.4,1.9
		s2.7,1.3,3.4,2s1,1.6,1,2.7c0,1.2-0.5,2.3-1.5,3.2c-1,0.9-2.2,1.4-3.5,1.4c-2.1,0-3.7-0.9-5-2.8L189,96c0.8,0.8,1.7,1.2,2.6,1.2
		c0.6,0,1.2-0.2,1.7-0.5s0.7-0.7,0.7-1.2c0-0.8-0.8-1.5-2.5-2.2c-1.7-0.6-2.8-1.3-3.5-2c-0.6-0.7-1-1.5-1-2.5c0-1.2,0.5-2.2,1.4-3
		c0.9-0.8,2-1.2,3.4-1.2S194.8,85.4,196.5,86.8z"/>
</g>
<g>
</g>
<g>
</g>
<g>
</g>
<g>
</g>
<g>
</g>
<g>
</g>
<g>
</g>
<g>
</g>
<g>
</g>
<g>
</g>
<g>
</g>
<g>
</g>
<g>
</g>
<g>
</g>
<g>
</g>
</svg>
