<?xml version="1.0" encoding="utf-8"?>
<!-- Generator: Adobe Illustrator 24.2.3, SVG Export Plug-In . SVG Version: 6.00 Build 0)  -->
<svg version="1.1" id="Layer_1" xmlns="http://www.w3.org/2000/svg" xmlns:xlink="http://www.w3.org/1999/xlink" x="0px" y="0px"
	 viewBox="0 0 286 180" style="enable-background:new 0 0 286 180;" xml:space="preserve">
<style type="text/css">
	.st0{fill:#FFFFFF;}
</style>
<rect width="286" height="180"/>
<g>
	<path class="st0" d="M36.4,56.4v3.5c-2.4-1.2-4.6-1.8-6.7-1.8c-2.6,0-4.8,0.8-6.6,2.5c-1.8,1.7-2.7,3.7-2.7,6.2
		c0,2.5,0.9,4.6,2.7,6.2c1.8,1.7,4.1,2.5,6.8,2.5c2,0,4.1-0.6,6.3-1.9v3.5c-2,1.1-4.2,1.6-6.6,1.6c-3.5,0-6.4-1.2-8.9-3.5
		c-2.5-2.3-3.7-5.2-3.7-8.5c0-3.3,1.2-6,3.6-8.4c2.4-2.3,5.3-3.5,8.7-3.5C31.8,54.9,34.1,55.4,36.4,56.4z"/>
	<path class="st0" d="M39.1,66.7c0-3.2,1.2-6,3.7-8.3s5.4-3.5,8.8-3.5c3.3,0,6.2,1.2,8.6,3.5s3.6,5.1,3.6,8.3c0,3.4-1.2,6.2-3.6,8.6
		c-2.4,2.3-5.3,3.5-8.8,3.5c-3.4,0-6.3-1.2-8.7-3.5C40.3,72.9,39.1,70,39.1,66.7z M60.6,66.8c0-2.5-0.9-4.6-2.7-6.2s-4-2.5-6.6-2.5
		c-2.5,0-4.6,0.9-6.4,2.6c-1.8,1.7-2.6,3.8-2.6,6.2c0,2.4,0.9,4.5,2.7,6.2c1.8,1.7,4,2.5,6.7,2.5c2.4,0,4.5-0.9,6.2-2.6
		C59.7,71.2,60.6,69.2,60.6,66.8z"/>
	<path class="st0" d="M68.5,55.6H73c2.5,0,4.6,0.6,6.2,1.8s2.3,2.7,2.3,4.7c0,1.9-0.8,3.5-2.5,4.8s-4.1,1.9-7.5,1.9V78h-3V55.6z
		 M71.6,58.3v7.8c2.3,0,4-0.3,5.1-1s1.7-1.6,1.7-3c0-1-0.4-1.9-1.3-2.7S74.4,58.3,71.6,58.3z"/>
	<path class="st0" d="M86.5,55.6H91c2.5,0,4.6,0.6,6.2,1.8s2.3,2.7,2.3,4.7c0,1.9-0.8,3.5-2.5,4.8s-4.1,1.9-7.5,1.9V78h-3V55.6z
		 M89.6,58.3v7.8c2.3,0,4-0.3,5.1-1s1.7-1.6,1.7-3c0-1-0.4-1.9-1.3-2.7S92.4,58.3,89.6,58.3z"/>
	<path class="st0" d="M109.3,54.7L119.9,78h-3.2l-2.6-5.7h-9.5L102,78h-3.2L109.3,54.7z M109.3,61.7l-3.6,8h7.2L109.3,61.7z"/>
	<path class="st0" d="M141,54.7L151.5,78h-3.2l-2.6-5.7h-9.5l-2.6,5.7h-3.2L141,54.7z M141,61.7l-3.6,8h7.2L141,61.7z"/>
	<path class="st0" d="M174.9,59.2l-2.3,2.2c-2.3-2.2-4.9-3.4-7.9-3.4c-2.6,0-4.8,0.8-6.6,2.5c-1.7,1.7-2.6,3.8-2.6,6.3
		c0,2.2,0.8,4.2,2.5,6c1.7,1.8,4,2.7,7,2.7c4.5,0,7.3-1.9,8.4-5.8h-6v-3.1h9.5c0,1.5-0.1,2.8-0.3,3.7c-0.2,0.9-0.6,1.9-1.3,3
		c-0.6,1.1-1.5,2.1-2.6,3c-1.1,0.9-2.2,1.5-3.4,1.9s-2.7,0.6-4.4,0.6c-3.9,0-7-1.2-9.3-3.6s-3.5-5.2-3.5-8.3c0-3.3,1.2-6.1,3.5-8.4
		s5.2-3.5,8.6-3.5c2,0,3.8,0.3,5.5,0.9S173.2,57.5,174.9,59.2z"/>
	<path class="st0" d="M180.8,55.6h12.4v3.1h-9.4v5.6h9.4v3h-9.4V75h9.4v3h-12.4V55.6z"/>
	<path class="st0" d="M196.6,54.7l16.6,17V55.6h3.1V79l-16.6-16.9V78h-3.1V54.7z"/>
	<path class="st0" d="M238.9,56.4v3.5c-2.4-1.2-4.6-1.8-6.7-1.8c-2.6,0-4.8,0.8-6.6,2.5c-1.8,1.7-2.7,3.7-2.7,6.2
		c0,2.5,0.9,4.6,2.7,6.2c1.8,1.7,4.1,2.5,6.8,2.5c2,0,4.1-0.6,6.3-1.9v3.5c-2,1.1-4.2,1.6-6.6,1.6c-3.5,0-6.4-1.2-8.9-3.5
		c-2.5-2.3-3.7-5.2-3.7-8.5c0-3.3,1.2-6,3.6-8.4c2.4-2.3,5.3-3.5,8.7-3.5C234.3,54.9,236.6,55.4,238.9,56.4z"/>
	<path class="st0" d="M241.2,55.6h3.4l5.5,9l5.4-9h3.4l-7.3,12.1V78h-3.1V67.8L241.2,55.6z"/>
	<path class="st0" d="M78.6,98.8h4.5c2.5,0,4.6,0.6,6.2,1.8s2.3,2.7,2.3,4.7c0,1.9-0.8,3.5-2.5,4.8S85,112,81.7,112v9.2h-3V98.8z
		 M81.7,101.5v7.8c2.3,0,4-0.3,5.1-1s1.7-1.6,1.7-3c0-1-0.4-1.9-1.3-2.7S84.5,101.5,81.7,101.5z"/>
	<path class="st0" d="M96.4,98.8h4.9c2.4,0,4.4,0.6,5.9,1.8c1.5,1.2,2.3,2.7,2.3,4.6c0,1.5-0.5,2.8-1.5,4c-1,1.1-2.5,2-4.6,2.4
		l6.5,9.6h-3.5l-6.2-9.2h-0.7v9.2h-3.1V98.8z M99.4,101.5v7.8c4.5,0.1,6.8-1.2,6.8-3.9c0-0.9-0.3-1.7-0.8-2.3s-1.2-1-2.1-1.2
		S101.1,101.5,99.4,101.5z"/>
	<path class="st0" d="M113,109.9c0-3.2,1.2-6,3.7-8.3c2.4-2.3,5.4-3.5,8.8-3.5c3.3,0,6.2,1.2,8.6,3.5c2.4,2.3,3.6,5.1,3.6,8.3
		c0,3.4-1.2,6.2-3.6,8.6s-5.3,3.5-8.8,3.5c-3.4,0-6.3-1.2-8.7-3.5C114.2,116.1,113,113.2,113,109.9z M134.4,110
		c0-2.5-0.9-4.6-2.7-6.2c-1.8-1.7-4-2.5-6.6-2.5c-2.5,0-4.6,0.9-6.4,2.6c-1.8,1.7-2.6,3.8-2.6,6.2c0,2.4,0.9,4.5,2.7,6.2
		s4,2.5,6.7,2.5c2.4,0,4.5-0.9,6.2-2.6S134.4,112.4,134.4,110z"/>
	<path class="st0" d="M146.9,98.8h3.1v16.4c0,4.5-1.9,6.7-5.6,6.7c-1.3,0-2.6-0.3-3.8-1l1.5-2.5c1,0.3,1.8,0.5,2.4,0.5
		c1.6,0,2.4-1.1,2.4-3.2V98.8z"/>
	<path class="st0" d="M155.3,98.8h12.4v3.1h-9.4v5.6h9.4v3h-9.4v7.7h9.4v3h-12.4V98.8z"/>
	<path class="st0" d="M189.4,99.6v3.5c-2.4-1.2-4.6-1.8-6.7-1.8c-2.6,0-4.8,0.8-6.6,2.5c-1.8,1.7-2.7,3.7-2.7,6.2
		c0,2.5,0.9,4.6,2.7,6.2c1.8,1.7,4.1,2.5,6.8,2.5c2,0,4.1-0.6,6.3-1.9v3.5c-2,1.1-4.2,1.6-6.6,1.6c-3.5,0-6.4-1.2-8.9-3.5
		s-3.7-5.2-3.7-8.5c0-3.3,1.2-6,3.6-8.4c2.4-2.3,5.3-3.5,8.7-3.5C184.8,98.1,187,98.6,189.4,99.6z"/>
	<path class="st0" d="M191.7,98.8h13.7v3.1H200v19.3h-3v-19.3h-5.3V98.8z"/>
</g>
<g>
</g>
<g>
</g>
<g>
</g>
<g>
</g>
<g>
</g>
<g>
</g>
<g>
</g>
<g>
</g>
<g>
</g>
<g>
</g>
<g>
</g>
<g>
</g>
<g>
</g>
<g>
</g>
<g>
</g>
</svg>
